<svg viewBox="0 0 600 400" xmlns="http://www.w3.org/2000/svg">
  <defs>
    <linearGradient id="skyG1" x1="0" y1="0" x2="0" y2="1">
      <stop offset="0%" stop-color="#0B1220"/>
      <stop offset="100%" stop-color="#0F1B2E"/>
    </linearGradient>
    <linearGradient id="bldgG1" x1="0" y1="0" x2="0" y2="1">
      <stop offset="0%" stop-color="#3B82F6"/>
      <stop offset="100%" stop-color="#1E4FA8"/>
    </linearGradient>
    <linearGradient id="bldgG2" x1="0" y1="0" x2="0" y2="1">
      <stop offset="0%" stop-color="#10D9C4"/>
      <stop offset="100%" stop-color="#0B8C7E"/>
    </linearGradient>
    <linearGradient id="domeG" x1="0" y1="0" x2="1" y2="1">
      <stop offset="0%" stop-color="#7C3AED"/>
      <stop offset="100%" stop-color="#3B82F6"/>
    </linearGradient>
  </defs>

  <rect width="600" height="400" fill="url(#skyG1)"/>

  <circle cx="500" cy="80" r="70" fill="#3B82F6" opacity="0.08"/>
  <circle cx="90" cy="60" r="50" fill="#7C3AED" opacity="0.08"/>

  <g opacity="0.5">
    <circle cx="80" cy="70" r="1.5" fill="#fff"/>
    <circle cx="160" cy="40" r="1.5" fill="#fff"/>
    <circle cx="450" cy="50" r="1.5" fill="#fff"/>
    <circle cx="520" cy="100" r="1.5" fill="#fff"/>
    <circle cx="380" cy="35" r="1.5" fill="#fff"/>
    <circle cx="250" cy="55" r="1.5" fill="#fff"/>
  </g>

  <g>
    <rect x="40" y="220" width="55" height="150" fill="url(#bldgG1)" opacity="0.85" rx="2"/>
    <g fill="#0B1220" opacity="0.4">
      <rect x="50" y="235" width="10" height="14" rx="1"/>
      <rect x="68" y="235" width="10" height="14" rx="1"/>
      <rect x="50" y="260" width="10" height="14" rx="1"/>
      <rect x="68" y="260" width="10" height="14" rx="1"/>
      <rect x="50" y="285" width="10" height="14" rx="1"/>
      <rect x="68" y="285" width="10" height="14" rx="1"/>
      <rect x="50" y="310" width="10" height="14" rx="1"/>
      <rect x="68" y="310" width="10" height="14" rx="1"/>
    </g>
  </g>

  <g>
    <rect x="105" y="180" width="65" height="190" fill="url(#bldgG2)" opacity="0.9" rx="2"/>
    <g fill="#0B1220" opacity="0.4">
      <rect x="116" y="198" width="12" height="16" rx="1"/>
      <rect x="138" y="198" width="12" height="16" rx="1"/>
      <rect x="116" y="226" width="12" height="16" rx="1"/>
      <rect x="138" y="226" width="12" height="16" rx="1"/>
      <rect x="116" y="254" width="12" height="16" rx="1"/>
      <rect x="138" y="254" width="12" height="16" rx="1"/>
      <rect x="116" y="282" width="12" height="16" rx="1"/>
      <rect x="138" y="282" width="12" height="16" rx="1"/>
      <rect x="116" y="310" width="12" height="16" rx="1"/>
      <rect x="138" y="310" width="12" height="16" rx="1"/>
    </g>
  </g>

  <g>
    <rect x="230" y="140" width="100" height="230" fill="url(#bldgG1)" rx="3"/>
    <rect x="260" y="100" width="40" height="50" fill="url(#bldgG1)" rx="3"/>
    <path d="M 258 100 Q 280 60 302 100 Z" fill="url(#domeG)"/>
    <rect x="276" y="50" width="8" height="22" fill="#7C3AED"/>
    <circle cx="280" cy="46" r="5" fill="#10D9C4"/>
    <g fill="#0B1220" opacity="0.35">
      <rect x="245" y="165" width="14" height="18" rx="1"/>
      <rect x="273" y="165" width="14" height="18" rx="1"/>
      <rect x="301" y="165" width="14" height="18" rx="1"/>
      <rect x="245" y="200" width="14" height="18" rx="1"/>
      <rect x="273" y="200" width="14" height="18" rx="1"/>
      <rect x="301" y="200" width="14" height="18" rx="1"/>
      <rect x="245" y="235" width="14" height="18" rx="1"/>
      <rect x="273" y="235" width="14" height="18" rx="1"/>
      <rect x="301" y="235" width="14" height="18" rx="1"/>
      <rect x="245" y="270" width="14" height="18" rx="1"/>
      <rect x="273" y="270" width="14" height="18" rx="1"/>
      <rect x="301" y="270" width="14" height="18" rx="1"/>
    </g>
    <rect x="262" y="320" width="36" height="50" fill="#0B1220" opacity="0.5" rx="2"/>
  </g>

  <g>
    <rect x="350" y="200" width="60" height="170" fill="url(#bldgG2)" opacity="0.85" rx="2"/>
    <g fill="#0B1220" opacity="0.4">
      <rect x="360" y="215" width="11" height="15" rx="1"/>
      <rect x="380" y="215" width="11" height="15" rx="1"/>
      <rect x="360" y="240" width="11" height="15" rx="1"/>
      <rect x="380" y="240" width="11" height="15" rx="1"/>
      <rect x="360" y="265" width="11" height="15" rx="1"/>
      <rect x="380" y="265" width="11" height="15" rx="1"/>
      <rect x="360" y="290" width="11" height="15" rx="1"/>
      <rect x="380" y="290" width="11" height="15" rx="1"/>
    </g>
  </g>

  <g>
    <rect x="425" y="240" width="50" height="130" fill="url(#bldgG1)" opacity="0.85" rx="2"/>
    <g fill="#0B1220" opacity="0.4">
      <rect x="435" y="255" width="10" height="13" rx="1"/>
      <rect x="452" y="255" width="10" height="13" rx="1"/>
      <rect x="435" y="278" width="10" height="13" rx="1"/>
      <rect x="452" y="278" width="10" height="13" rx="1"/>
      <rect x="435" y="301" width="10" height="13" rx="1"/>
      <rect x="452" y="301" width="10" height="13" rx="1"/>
    </g>
  </g>

  <g>
    <rect x="500" y="260" width="45" height="110" fill="url(#bldgG2)" opacity="0.7" rx="2"/>
  </g>

  <rect x="0" y="368" width="600" height="32" fill="#070A12"/>

  <g transform="translate(280, 168)">
    <path d="M0 0 C0 -16 13 -28 28 -28 C43 -28 56 -16 56 0 C56 22 28 50 28 50 C28 50 0 22 0 0 Z"
          fill="#10D9C4" stroke="#0B1220" stroke-width="2"/>
    <circle cx="28" cy="0" r="11" fill="#0B1220"/>
  </g>
</svg>
