<svg viewBox="0 0 600 400" xmlns="http://www.w3.org/2000/svg">
  <defs>
    <linearGradient id="ecoBg" x1="0" y1="0" x2="1" y2="1">
      <stop offset="0%" stop-color="#071A14"/>
      <stop offset="100%" stop-color="#0B1220"/>
    </linearGradient>
    <linearGradient id="leafG1" x1="0" y1="0" x2="0" y2="1">
      <stop offset="0%" stop-color="#34E0C9"/>
      <stop offset="100%" stop-color="#10D9C4"/>
    </linearGradient>
    <linearGradient id="leafG2" x1="0" y1="0" x2="0" y2="1">
      <stop offset="0%" stop-color="#7C3AED"/>
      <stop offset="100%" stop-color="#3B82F6"/>
    </linearGradient>
    <linearGradient id="bookG" x1="0" y1="0" x2="0" y2="1">
      <stop offset="0%" stop-color="#3B82F6"/>
      <stop offset="100%" stop-color="#1E4FA8"/>
    </linearGradient>
  </defs>

  <rect width="600" height="400" fill="url(#ecoBg)"/>
  <circle cx="500" cy="90" r="90" fill="#10D9C4" opacity="0.1"/>
  <circle cx="80" cy="320" r="70" fill="#7C3AED" opacity="0.1"/>

  <g transform="translate(220, 230)">
    <rect x="-90" y="60" width="180" height="14" rx="3" fill="url(#bookG)"/>
    <path d="M-85 60 L-85 10 C-85 2 -78 -4 -68 -4 L-4 -4 L-4 60 Z" fill="#1E4FA8"/>
    <path d="M85 60 L85 10 C85 2 78 -4 68 -4 L4 -4 L4 60 Z" fill="#3B82F6"/>
    <line x1="0" y1="-4" x2="0" y2="60" stroke="#0B1220" stroke-width="2"/>
    <g stroke="#0B1220" stroke-width="1.5" opacity="0.45">
      <line x1="-70" y1="10" x2="-15" y2="10"/>
      <line x1="-70" y1="22" x2="-15" y2="22"/>
      <line x1="-70" y1="34" x2="-15" y2="34"/>
      <line x1="15" y1="10" x2="70" y2="10"/>
      <line x1="15" y1="22" x2="70" y2="22"/>
      <line x1="15" y1="34" x2="70" y2="34"/>
    </g>
  </g>

  <g transform="translate(220, 220)">
    <path d="M0 0 C0 -60 -50 -90 -50 -90 C-50 -90 -30 -45 0 0 Z" fill="url(#leafG1)"/>
    <path d="M0 0 C0 -75 55 -110 55 -110 C55 -110 35 -50 0 0 Z" fill="url(#leafG2)"/>
    <line x1="0" y1="0" x2="0" y2="-105" stroke="#0B1220" stroke-width="3" stroke-linecap="round"/>
  </g>

  <g opacity="0.85">
    <circle cx="120" cy="120" r="3" fill="#10D9C4"/>
    <circle cx="450" cy="150" r="2.5" fill="#34E0C9"/>
    <circle cx="480" cy="250" r="2" fill="#7C3AED"/>
    <circle cx="100" cy="280" r="2" fill="#3B82F6"/>
    <circle cx="380" cy="90" r="2" fill="#10D9C4"/>
  </g>

  <g transform="translate(420, 240)">
    <circle r="34" fill="none" stroke="#10D9C4" stroke-width="2" opacity="0.6"/>
    <path d="M-14 -3 C-14 -14 -5 -20 0 -20 C5 -20 14 -14 14 -3 C14 9 0 22 0 22 C0 22 -14 9 -14 -3 Z"
          fill="#10D9C4" opacity="0.85"/>
  </g>
</svg>
