<svg viewBox="0 0 600 400" xmlns="http://www.w3.org/2000/svg">
  <defs>
    <linearGradient id="salonBg" x1="0" y1="0" x2="1" y2="1">
      <stop offset="0%" stop-color="#0E0A1F"/>
      <stop offset="100%" stop-color="#160D2E"/>
    </linearGradient>
    <linearGradient id="calG" x1="0" y1="0" x2="0" y2="1">
      <stop offset="0%" stop-color="#3B82F6"/>
      <stop offset="100%" stop-color="#7C3AED"/>
    </linearGradient>
  </defs>

  <rect width="600" height="400" fill="url(#salonBg)"/>
  <circle cx="490" cy="320" r="90" fill="#7C3AED" opacity="0.1"/>
  <circle cx="90" cy="80" r="70" fill="#3B82F6" opacity="0.1"/>

  <g transform="translate(190, 80)">
    <rect width="220" height="200" rx="14" fill="url(#calG)" opacity="0.92"/>
    <rect x="0" y="0" width="220" height="46" rx="14" fill="#0B1220" opacity="0.35"/>
    <rect x="20" y="-12" width="10" height="30" rx="4" fill="#0B1220"/>
    <rect x="190" y="-12" width="10" height="30" rx="4" fill="#0B1220"/>

    <g fill="#0B1220" opacity="0.55">
      <rect x="20" y="70" width="24" height="24" rx="5"/>
      <rect x="58" y="70" width="24" height="24" rx="5"/>
      <rect x="96" y="70" width="24" height="24" rx="5"/>
      <rect x="134" y="70" width="24" height="24" rx="5"/>
      <rect x="172" y="70" width="24" height="24" rx="5"/>

      <rect x="20" y="106" width="24" height="24" rx="5"/>
      <rect x="96" y="106" width="24" height="24" rx="5" opacity="0.3"/>
      <rect x="134" y="106" width="24" height="24" rx="5"/>
      <rect x="172" y="106" width="24" height="24" rx="5"/>

      <rect x="58" y="142" width="24" height="24" rx="5"/>
      <rect x="96" y="142" width="24" height="24" rx="5"/>
      <rect x="134" y="142" width="24" height="24" rx="5" opacity="0.3"/>
    </g>
    <rect x="96" y="106" width="24" height="24" rx="5" fill="#10D9C4"/>
    <rect x="134" y="142" width="24" height="24" rx="5" fill="#10D9C4"/>
  </g>

  <g transform="translate(80, 230) rotate(-25)">
    <circle r="16" fill="none" stroke="#10D9C4" stroke-width="4"/>
    <circle cx="0" cy="46" r="16" fill="none" stroke="#10D9C4" stroke-width="4"/>
    <line x1="11" y1="11" x2="60" y2="-30" stroke="#10D9C4" stroke-width="4" stroke-linecap="round"/>
    <line x1="11" y1="35" x2="60" y2="76" stroke="#10D9C4" stroke-width="4" stroke-linecap="round"/>
  </g>

  <g transform="translate(470, 230)">
    <rect x="-8" y="0" width="16" height="90" rx="6" fill="#3B82F6"/>
    <g fill="#3B82F6">
      <rect x="-22" y="0" width="6" height="22" rx="3"/>
      <rect x="-12" y="-8" width="6" height="30" rx="3"/>
      <rect x="-2" y="-12" width="6" height="34" rx="3"/>
      <rect x="8" y="-8" width="6" height="30" rx="3"/>
      <rect x="18" y="0" width="6" height="22" rx="3"/>
    </g>
  </g>

  <g opacity="0.6">
    <circle cx="160" cy="320" r="3" fill="#A78BFA"/>
    <circle cx="420" cy="100" r="2.5" fill="#10D9C4"/>
    <circle cx="350" cy="330" r="2" fill="#3B82F6"/>
  </g>
</svg>
